# xmcd
#
# Track frame offsets:
# 182
# 22342
# 44147
# 60567
# 85840
# 98207
# 111337
# 129922
# 156107
# 177807
# 202872
# 219500
# 244865
# 273387
# 291537
#
# Disc length: 4095 seconds
#
#
# Revision: 0
# Processed by: cddbd v1.5PL3 Copyright (c) Steve Scherf et al.
# Submitted via: FreeRIP 2.70 
#
DISCID=df0ffd0f
DTITLE=Blue Little Joe and Burns Eddie Guitar - Chicago Blues Festival '86
DYEAR=1986
DGENRE=Blues
TTITLE0=Little Joe Blue - Dirty Work Goin' On
TTITLE1=Little Joe Blue - You're Breaking My Heart
TTITLE2=Little Joe Blue - Me And My Guitar
TTITLE3=Little Joe Blue - If You Let Me Love You
TTITLE4=Little Joe Blue - Give Me One Hour In Your Garden
TTITLE5=Little Joe Blue - Big Leg Woman
TTITLE6=Little Joe Blue - You Can Help Me If You Want To
TTITLE7=Little Joe Blue - She Did It Again
TTITLE8=Eddie Guitar Burns - Lonesome Feeling
TTITLE9=Eddie Guitar Burns - I Dig You Baby
TTITLE10=Eddie Guitar Burns - In The State Highway
TTITLE11=Eddie Guitar Burns - You Got To Love Me With Feeling
TTITLE12=Eddie Guitar Burns - New Inflation Blues
TTITLE13=Eddie Guitar Burns - This Old House
TTITLE14=Eddie Guitar Burns - Wee Baby Blues
EXTD=
EXTT0=
EXTT1=
EXTT2=
EXTT3=
EXTT4=
EXTT5=
EXTT6=
EXTT7=
EXTT8=
EXTT9=
EXTT10=
EXTT11=
EXTT12=
EXTT13=
EXTT14=
PLAYORDER=
